<svg xmlns="http://www.w3.org/2000/svg" xmlns:xlink="http://www.w3.org/1999/xlink" aria-hidden="true" role="img" class="iconify iconify--logos" width="31.88" height="32" preserveAspectRatio="xMidYMid meet" viewBox="0 0 256 257"><defs><linearGradient id="IconifyId181e22858d18290111" x1="-.828%" x2="57.636%" y1="7.652%" y2="78.411%"><stop offset="0%" stop-color="#41D1FF"></stop><stop offset="100%" stop-color="#BD34FE"></stop></linearGradient><linearGradient id="IconifyId181e22858d18290112" x1="43.376%" x2="50.516%" y1="2.242%" y2="89.03%"><stop offset="0%" stop-color="#FFEA83"></stop><stop offset="8.333%" stop-color="#FFDD35"></stop><stop offset="100%" stop-color="#FFA800"></stop></linearGradient></defs><path fill="url(#IconifyId181e22858d18290111)" d="M255.153 37.938L134.897 252.976c-2.483 4.44-8.862 4.466-11.382.048L.871 37.912c-2.546-4.454.775-9.936 5.924-9.936h242.413c5.174 0 8.482 5.511 5.945 9.962z"></path><path fill="url(#IconifyId181e22858d18290112)" d="M135.094 16.73c-6.071-10.428-21.055-10.435-27.135-.013L4.173 198.243c-6.19 10.612 1.411 23.905 13.658 23.905h27.424c10.457 0 15.654-12.635 8.245-20.012l-7.794-7.77c-2.541-2.533-.948-6.843 2.617-6.843H126.9c3.045 0 5.626-2.091 6.271-5.066l12.115-55.93c.712-3.287 5.179-4.004 6.903-1.115l41.52 69.458c4.321 7.228 14.733 7.02 18.74-.403l40.354-74.83c1.782-3.304 6.55-3.084 8.016.37l24.471 57.653c1.378 3.25 5.54 4.015 7.962 1.488l3.968-4.137c7.228-7.53 1.846-19.984-8.584-19.984h-28.7c-9.846 0-14.887-11.83-8.083-18.966l6.634-6.963c2.443-2.563.633-6.721-2.923-6.721H138.852c-3.14 0-5.753-2.222-6.31-5.313l-10.231-56.76c-.611-3.39 4.195-4.526 5.433-1.393l14.1 35.65c1.658 4.19 7.74 3.992 9.124-.352l12.42-39.011c1.139-3.582-3.666-6.199-6.494-3.333z"></path></svg>
